<?xml version="1.0" encoding="UTF-8" standalone="no"?>
<!-- Created with Inkscape (http://www.inkscape.org/) -->

<svg
   version="1.1"
   id="svg1"
   width="406.66852"
   height="165.06996"
   viewBox="0 0 406.66852 165.06996"
   xmlns="http://www.w3.org/2000/svg"
   xmlns:svg="http://www.w3.org/2000/svg">
  <defs
     id="defs1" />
  <g
     id="g1"
     transform="translate(-1.3300431,-12.704178)">
    <path
       style="fill:#000000"
       d="M 218.33004,103.27414 V 28.774148 h 7.5 7.5 v 74.499992 74.5 h -7.5 -7.5 z M 62.980408,160.33575 C 54.232502,156.05013 50.346841,149.52121 50.33562,139.08924 50.319075,123.70702 63.903774,114.84455 87.580036,114.7915 l 7.75,-0.0174 v -3.94424 c 0,-10.79994 -19.23901,-14.349938 -21.518683,-3.97065 l -0.640221,2.91489 h -10 -10 l 0.70367,-3.25 c 3.925956,-18.132608 28.636994,-26.905386 48.850768,-17.342748 11.79872,5.58169 12.42484,7.78923 12.86034,45.342748 l 0.30441,26.25 h -9.78014 -9.780144 v -3.18709 -3.18709 l -2.75,2.59407 c -6.67187,6.29358 -21.310923,7.89228 -30.599628,3.34172 z m 26.349628,-14.43466 c 3.62411,-2.5646 5.99666,-7.9113 5.99845,-13.51791 l 0.002,-4.89095 -8.31312,0.51863 c -10.09514,0.62982 -14.10263,2.46298 -15.652832,7.16013 -3.283371,9.94872 8.839022,17.18877 17.965952,10.7301 z m 72.500004,15.00957 c -2.2,-1.00076 -4.66717,-2.62561 -5.4826,-3.61077 -1.40279,-1.69478 -1.51277,-1.66294 -2.04308,0.59152 -0.53952,2.29366 -0.94205,2.39338 -10.7674,2.66771 l -10.20692,0.28499 V 109.30912 57.774144 h 10.5 10.5 l 0.0304,18.75 c 0.0212,13.094928 0.33455,18.228038 1.03884,17.019388 6.51328,-11.17772 32.13145,-9.60021 41.80658,2.57436 23.11321,29.084188 -4.14074,79.001288 -35.37583,64.792768 z m 13.30604,-16.28467 c 11.59506,-5.61308 12.39632,-34.21066 1.12533,-40.16444 -15.95961,-8.430488 -27.82412,10.31496 -20.83315,32.91554 2.48816,8.04379 11.34003,11.29967 19.70782,7.2489 z M 12.330043,131.77414 v -29 h -5.4999999 -5.5 v -7.499998 -7.5 h 5.371515 5.3715139 l 0.450629,-7.78435 C 13.504485,63.047334 23.709229,54.264754 40.080043,56.273774 l 5.25,0.64428 -2.5e-4,8.17805 -2.5e-4,8.17804 -4.653132,0.0995 c -5.850942,0.12516 -7.346368,1.97584 -7.346368,9.091628 v 5.30887 h 6 6 v 7.5 7.499998 h -6 -6 v 29 29 h -10.5 -10.5 z M 253.33004,80.274142 V 43.774144 h 9.95469 9.95468 l 0.66057,3.52111 0.66056,3.52111 2.63475,-2.653 c 9.00899,-9.07142 28.0061,-8.43451 35.95209,1.20535 5.56303,6.74892 6.18266,10.80989 6.18266,40.520258 v 26.885168 h -10.5 -10.5 V 90.697222 64.620294 l -2.92308,-2.92307 c -2.50287,-2.50288 -3.69278,-2.92308 -8.27749,-2.92308 -11.72423,0 -12.79943,2.85344 -12.79943,33.967878 v 24.032118 h -10.5 -10.5 z m 84,-15.534978 V 12.704178 l 10.25,0.28499 10.25,0.28498 0.26505,29.861716 0.26506,29.86173 4.21038,-5.36173 c 2.31571,-2.94894 4.44736,-5.58672 4.73701,-5.86172 0.28965,-0.275 3.83689,-4.4375 7.88276,-9.25 l 7.35612,-8.75 h 11.84672 11.84671 l -7.28735,7.75 c -19.21044,20.43003 -18.57105,19.64181 -17.2332,21.24438 0.69131,0.82809 3.52457,5.33062 6.29613,10.005618 9.10394,15.35626 16.58178,27.459578 18.46388,29.884858 2.99491,3.85925 2.40103,4.11514 -9.55049,4.11514 h -11.40123 l -2.23567,-3.75 c -1.22962,-2.0625 -3.36419,-5.775 -4.7435,-8.25 -11.25251,-20.191198 -11.28972,-20.241668 -13.49199,-18.299788 -7.01817,6.18835 -6.72639,5.39255 -6.72639,18.345238 v 11.95455 h -10.5 -10.5 z"
       id="path1" />
  </g>
</svg>
